<mxfile host="app.diagrams.net" modified="2023-05-03T13:28:16.003Z" agent="Mozilla/5.0 (Windows NT 10.0; Win64; x64; rv:112.0) Gecko/20100101 Firefox/112.0" etag="Xz6VASg_hgrgRgEIuMQS" version="21.2.7" type="device">
  <diagram name="Page-1" id="FAgAO0uMHk-3TU4RxSDy">
    <mxGraphModel dx="938" dy="1087" grid="1" gridSize="10" guides="1" tooltips="1" connect="1" arrows="1" fold="1" page="1" pageScale="1" pageWidth="827" pageHeight="1169" math="0" shadow="0">
      <root>
        <mxCell id="0" />
        <mxCell id="1" parent="0" />
        <mxCell id="K6IgTJq4AnF0AGqJv_x2-35" style="edgeStyle=orthogonalEdgeStyle;rounded=0;orthogonalLoop=1;jettySize=auto;html=1;" edge="1" parent="1" source="K6IgTJq4AnF0AGqJv_x2-1" target="K6IgTJq4AnF0AGqJv_x2-34">
          <mxGeometry relative="1" as="geometry">
            <Array as="points">
              <mxPoint x="120" y="490" />
              <mxPoint x="120" y="490" />
            </Array>
          </mxGeometry>
        </mxCell>
        <mxCell id="K6IgTJq4AnF0AGqJv_x2-1" value="" style="rounded=0;whiteSpace=wrap;html=1;" vertex="1" parent="1">
          <mxGeometry x="40" y="120" width="270" height="230" as="geometry" />
        </mxCell>
        <mxCell id="K6IgTJq4AnF0AGqJv_x2-2" value="&lt;font style=&quot;font-size: 26px;&quot;&gt;&lt;b&gt;Whats your name? - Architektur&lt;/b&gt;&lt;/font&gt;" style="text;html=1;align=center;verticalAlign=middle;resizable=0;points=[];autosize=1;strokeColor=none;fillColor=none;" vertex="1" parent="1">
          <mxGeometry x="204" y="40" width="420" height="40" as="geometry" />
        </mxCell>
        <mxCell id="K6IgTJq4AnF0AGqJv_x2-4" value="&lt;div&gt;&lt;b&gt;&lt;font style=&quot;font-size: 14px;&quot;&gt;Server&lt;/font&gt;&lt;/b&gt;&lt;/div&gt;&lt;div&gt;81.173.84.159&lt;/div&gt;&lt;div&gt;tcp/22&lt;br&gt;&lt;/div&gt;" style="text;html=1;align=center;verticalAlign=middle;resizable=0;points=[];autosize=1;strokeColor=none;fillColor=none;" vertex="1" parent="1">
          <mxGeometry x="125" y="120" width="100" height="60" as="geometry" />
        </mxCell>
        <mxCell id="K6IgTJq4AnF0AGqJv_x2-5" value="" style="rounded=0;whiteSpace=wrap;html=1;" vertex="1" parent="1">
          <mxGeometry x="70" y="190" width="210" height="130" as="geometry" />
        </mxCell>
        <mxCell id="K6IgTJq4AnF0AGqJv_x2-6" value="&lt;div&gt;&lt;b&gt;Docker&lt;/b&gt;&lt;/div&gt;&lt;div&gt;&lt;div&gt;Container: Elasticsearch 8.7.1&lt;/div&gt;&lt;div&gt;tcp/80 &amp;amp; tcp/9200&lt;br&gt;&lt;/div&gt;&lt;/div&gt;" style="text;html=1;align=center;verticalAlign=middle;resizable=0;points=[];autosize=1;strokeColor=none;fillColor=none;" vertex="1" parent="1">
          <mxGeometry x="80" y="190" width="190" height="60" as="geometry" />
        </mxCell>
        <mxCell id="K6IgTJq4AnF0AGqJv_x2-21" style="edgeStyle=orthogonalEdgeStyle;rounded=0;orthogonalLoop=1;jettySize=auto;html=1;" edge="1" parent="1" source="K6IgTJq4AnF0AGqJv_x2-8" target="K6IgTJq4AnF0AGqJv_x2-1">
          <mxGeometry relative="1" as="geometry" />
        </mxCell>
        <mxCell id="K6IgTJq4AnF0AGqJv_x2-8" value="" style="rounded=0;whiteSpace=wrap;html=1;" vertex="1" parent="1">
          <mxGeometry x="500" y="120" width="270" height="230" as="geometry" />
        </mxCell>
        <mxCell id="K6IgTJq4AnF0AGqJv_x2-9" value="&lt;div style=&quot;font-size: 14px;&quot;&gt;&lt;b&gt;Github&lt;/b&gt;&lt;br&gt;&lt;/div&gt;&lt;div&gt;Data Repositoy&lt;/div&gt;&lt;div&gt;BDINF_final_project&lt;br&gt;&lt;/div&gt;" style="text;html=1;align=center;verticalAlign=middle;resizable=0;points=[];autosize=1;strokeColor=none;fillColor=none;" vertex="1" parent="1">
          <mxGeometry x="570" y="120" width="130" height="60" as="geometry" />
        </mxCell>
        <mxCell id="K6IgTJq4AnF0AGqJv_x2-29" style="edgeStyle=orthogonalEdgeStyle;rounded=0;orthogonalLoop=1;jettySize=auto;html=1;entryX=0.478;entryY=1.009;entryDx=0;entryDy=0;entryPerimeter=0;" edge="1" parent="1" source="K6IgTJq4AnF0AGqJv_x2-15" target="K6IgTJq4AnF0AGqJv_x2-1">
          <mxGeometry relative="1" as="geometry">
            <Array as="points">
              <mxPoint x="475" y="400" />
              <mxPoint x="169" y="400" />
            </Array>
          </mxGeometry>
        </mxCell>
        <mxCell id="K6IgTJq4AnF0AGqJv_x2-15" value="&lt;div&gt;&lt;b&gt;&lt;font style=&quot;font-size: 14px;&quot;&gt;Lena Willisits&lt;/font&gt;&lt;/b&gt;&lt;/div&gt;&lt;div&gt;JupyterLab, Git&lt;br&gt;&lt;/div&gt;" style="shape=umlActor;verticalLabelPosition=bottom;verticalAlign=top;html=1;outlineConnect=0;" vertex="1" parent="1">
          <mxGeometry x="460" y="470" width="30" height="60" as="geometry" />
        </mxCell>
        <mxCell id="K6IgTJq4AnF0AGqJv_x2-19" style="edgeStyle=orthogonalEdgeStyle;rounded=0;orthogonalLoop=1;jettySize=auto;html=1;entryX=0.5;entryY=1;entryDx=0;entryDy=0;" edge="1" parent="1" source="K6IgTJq4AnF0AGqJv_x2-16" target="K6IgTJq4AnF0AGqJv_x2-8">
          <mxGeometry relative="1" as="geometry">
            <Array as="points">
              <mxPoint x="325" y="400" />
              <mxPoint x="635" y="400" />
            </Array>
          </mxGeometry>
        </mxCell>
        <mxCell id="K6IgTJq4AnF0AGqJv_x2-28" style="edgeStyle=orthogonalEdgeStyle;rounded=0;orthogonalLoop=1;jettySize=auto;html=1;entryX=0.478;entryY=1.013;entryDx=0;entryDy=0;entryPerimeter=0;" edge="1" parent="1" source="K6IgTJq4AnF0AGqJv_x2-16" target="K6IgTJq4AnF0AGqJv_x2-1">
          <mxGeometry relative="1" as="geometry">
            <Array as="points">
              <mxPoint x="325" y="400" />
              <mxPoint x="169" y="400" />
            </Array>
          </mxGeometry>
        </mxCell>
        <mxCell id="K6IgTJq4AnF0AGqJv_x2-16" value="&lt;div&gt;&lt;b&gt;&lt;font style=&quot;font-size: 14px;&quot;&gt;Raphael Koller&lt;/font&gt;&lt;/b&gt;&lt;/div&gt;&lt;div&gt;VS Code, Git&lt;br&gt;&lt;/div&gt;" style="shape=umlActor;verticalLabelPosition=bottom;verticalAlign=top;html=1;outlineConnect=0;" vertex="1" parent="1">
          <mxGeometry x="310" y="470" width="30" height="60" as="geometry" />
        </mxCell>
        <mxCell id="K6IgTJq4AnF0AGqJv_x2-22" value="&lt;b&gt;Data:&lt;/b&gt;&lt;br&gt;&lt;div&gt;OGD_f0743_VZ_HIS_GEM_2.csv&lt;/div&gt;&lt;div&gt;OGDEXT_VORNAMEN_1.csv&lt;br&gt;&lt;/div&gt;" style="text;html=1;align=left;verticalAlign=middle;resizable=0;points=[];autosize=1;strokeColor=none;fillColor=none;" vertex="1" parent="1">
          <mxGeometry x="510" y="180" width="200" height="60" as="geometry" />
        </mxCell>
        <mxCell id="K6IgTJq4AnF0AGqJv_x2-23" value="&lt;div&gt;&lt;b&gt;Jupyter Notebook:&lt;/b&gt;&lt;br&gt;&lt;/div&gt;&lt;div&gt;Final_project_Koller_Willisits.ipynb&lt;/div&gt;" style="text;html=1;align=left;verticalAlign=middle;resizable=0;points=[];autosize=1;strokeColor=none;fillColor=none;" vertex="1" parent="1">
          <mxGeometry x="510" y="240" width="220" height="40" as="geometry" />
        </mxCell>
        <mxCell id="K6IgTJq4AnF0AGqJv_x2-24" value="&lt;div&gt;&lt;b&gt;Sonstige Dateien:&lt;/b&gt;&lt;br&gt;&lt;/div&gt;&lt;div&gt;README.md&lt;/div&gt;&lt;div&gt;docker-compose.yml&lt;br&gt;&lt;/div&gt;" style="text;html=1;align=left;verticalAlign=middle;resizable=0;points=[];autosize=1;strokeColor=none;fillColor=none;" vertex="1" parent="1">
          <mxGeometry x="510" y="280" width="140" height="60" as="geometry" />
        </mxCell>
        <mxCell id="K6IgTJq4AnF0AGqJv_x2-25" value="" style="rounded=0;whiteSpace=wrap;html=1;" vertex="1" parent="1">
          <mxGeometry x="500" y="620" width="270" height="50" as="geometry" />
        </mxCell>
        <mxCell id="K6IgTJq4AnF0AGqJv_x2-31" style="edgeStyle=orthogonalEdgeStyle;rounded=0;orthogonalLoop=1;jettySize=auto;html=1;entryX=0.75;entryY=1;entryDx=0;entryDy=0;" edge="1" parent="1" source="K6IgTJq4AnF0AGqJv_x2-26" target="K6IgTJq4AnF0AGqJv_x2-8">
          <mxGeometry relative="1" as="geometry" />
        </mxCell>
        <mxCell id="K6IgTJq4AnF0AGqJv_x2-26" value="&lt;div style=&quot;font-size: 14px;&quot;&gt;&lt;b&gt;Offene Daten Ã–sterreich | data.gv.at&lt;/b&gt;&lt;br&gt;&lt;/div&gt;&lt;div&gt;Datenquellen&lt;br&gt;&lt;/div&gt;&lt;div&gt;&lt;br&gt;&lt;/div&gt;" style="text;html=1;align=center;verticalAlign=middle;resizable=0;points=[];autosize=1;strokeColor=none;fillColor=none;" vertex="1" parent="1">
          <mxGeometry x="500" y="620" width="270" height="60" as="geometry" />
        </mxCell>
        <mxCell id="K6IgTJq4AnF0AGqJv_x2-33" value="" style="rounded=0;whiteSpace=wrap;html=1;" vertex="1" parent="1">
          <mxGeometry x="40" y="620" width="270" height="50" as="geometry" />
        </mxCell>
        <mxCell id="K6IgTJq4AnF0AGqJv_x2-34" value="&lt;div style=&quot;font-size: 14px;&quot;&gt;&lt;b&gt;Elasticsearch | docker.elastic.co&lt;/b&gt;&lt;br&gt;&lt;/div&gt;&lt;div&gt;Image&lt;br&gt;&lt;/div&gt;&lt;div&gt;&lt;br&gt;&lt;/div&gt;" style="text;html=1;align=center;verticalAlign=middle;resizable=0;points=[];autosize=1;strokeColor=none;fillColor=none;" vertex="1" parent="1">
          <mxGeometry x="50" y="620" width="250" height="60" as="geometry" />
        </mxCell>
      </root>
    </mxGraphModel>
  </diagram>
</mxfile>
